<svg xmlns="http://www.w3.org/2000/svg" width="368.9" height="116" viewBox="0 0 368.9 116" role="img">
<title>fium — logo con nombre</title>
<g transform="translate(10,10)">
<rect width="96" height="96" rx="22" fill="#4B2BE0"/>
<path d="M18,66 C34,71 52,63 70,16" stroke="#C9F03C" stroke-width="13" stroke-linecap="round" fill="none"/><circle cx="72" cy="12" r="5" fill="#C9F03C"/>
<line x1="118" y1="32" x2="146" y2="32" stroke="#C9F03C" stroke-width="5" stroke-linecap="round" opacity="0.4"/><line x1="110" y1="48" x2="146" y2="48" stroke="#C9F03C" stroke-width="5" stroke-linecap="round" opacity="0.75"/><line x1="122" y1="64" x2="146" y2="64" stroke="#C9F03C" stroke-width="5" stroke-linecap="round" opacity="0.4"/>
<path transform="translate(158.0,79.5)" d="M7.140000000000001 0.0V-46.431000000000004Q7.140000000000001 -54.411 11.655000000000001 -58.2855Q16.17 -62.160000000000004 25.011000000000003 -62.160000000000004H30.87V-52.038000000000004H24.423000000000002Q22.134 -52.038000000000004 20.895000000000003 -50.7885Q19.656000000000002 -49.539 19.656000000000002 -47.271V0.0ZM1.6800000000000002 -35.28V-45.108000000000004H31.584000000000003V-35.28ZM38.362 0.0V-45.99H51.844V0.0ZM32.230000000000004 -36.078V-45.99H51.844V-36.078ZM43.6225 -50.568000000000005Q39.832 -50.568000000000005 38.025999999999996 -52.53150000000001Q36.22 -54.495000000000005 36.22 -57.56100000000001Q36.22 -60.627 38.033500000000004 -62.590500000000006Q39.847 -64.554 43.591 -64.554Q47.413000000000004 -64.554 49.1875 -62.590500000000006Q50.962 -60.627 50.962 -57.56100000000001Q50.962 -54.495000000000005 49.1875 -52.53150000000001Q47.413000000000004 -50.568000000000005 43.6225 -50.568000000000005ZM77.774 1.4700000000000002Q69.857 1.4700000000000002 65.5415 -3.7065Q61.226000000000006 -8.883000000000001 61.226000000000006 -19.341V-46.011H74.708V-18.627000000000002Q74.708 -14.973 76.808 -12.778500000000001Q78.90800000000002 -10.584000000000001 82.45700000000001 -10.584000000000001Q86.048 -10.584000000000001 88.295 -12.8415Q90.542 -15.099 90.542 -18.963V-46.011H104.024V0.0H93.35600000000001V-19.425H94.238Q94.238 -12.411000000000001 92.4425 -7.7700000000000005Q90.647 -3.129 87.12950000000001 -0.8294999999999999Q83.61200000000001 1.4700000000000002 78.36200000000001 1.4700000000000002ZM114.41400000000002 0.0V-45.99H125.08200000000002V-26.187H124.32600000000002Q124.32600000000002 -33.243 126.11100000000002 -37.947Q127.89600000000002 -42.651 131.40300000000002 -45.0555Q134.91000000000003 -47.46 140.07600000000002 -47.46H140.66400000000002Q145.89300000000003 -47.46 149.37900000000002 -45.0555Q152.865 -42.651 154.6395 -37.947Q156.41400000000002 -33.243 156.41400000000002 -26.187H153.18Q153.18 -33.243 154.9755 -37.947Q156.77100000000002 -42.651 160.2885 -45.0555Q163.806 -47.46 168.972 -47.46H169.56Q174.78900000000002 -47.46 178.3485 -45.0555Q181.90800000000002 -42.651 183.75600000000003 -37.947Q185.604 -33.243 185.604 -26.187V0.0H172.122V-26.943Q172.122 -30.702 170.1585 -33.054Q168.19500000000002 -35.406 164.604 -35.406Q160.971 -35.406 158.8605 -33.012Q156.75 -30.618000000000002 156.75 -26.691000000000003V0.0H143.26800000000003V-26.943Q143.26800000000003 -30.702 141.30450000000002 -33.054Q139.341 -35.406 135.75 -35.406Q132.11700000000002 -35.406 130.00650000000002 -33.012Q127.89600000000002 -30.618000000000002 127.89600000000002 -26.691000000000003V0.0Z" fill="#241266"/>
</g>
</svg>